<svg width="80%" height="auto" viewBox="0 0 1920 468" fill="none" xmlns="http://www.w3.org/2000/svg">
<g clip-path="url(#clip0_105_15)" filter="url(#filter0_d_105_15)">
<path d="M2351.03 -1108.89L2296.47 -1125.27C2242.22 -1141.12 2132.64 -1174.69 2069.26 -1128C2005.57 -1081.85 1987.31 -956.794 1936 -889.137C1885.01 -820.942 1800.19 -811.495 1732.63 -772.069C1664.61 -733.45 1613.85 -664.852 1545.82 -626.233C1478.27 -586.807 1393.45 -577.359 1297.03 -588.077C1200.61 -598.794 1091.03 -632.366 1040.03 -564.171C988.722 -496.514 995.222 -328.436 964.576 -224.885C933.931 -121.335 866.14 -82.3123 777.689 -79.1834C689.546 -75.5167 579.968 -109.088 516.589 -62.4026C452.9 -16.2551 434.636 108.805 375.126 162.212C315.307 215.081 215.015 197.642 142.814 229.002C70.9223 260.899 27.8954 342.94 6.3817 383.961L-15.1318 424.982L-238 37.8144L-204.105 18.3032C-170.21 -1.20824 -102.42 -40.2308 -34.6295 -79.2535C33.1606 -118.276 100.951 -157.299 168.741 -196.321C236.531 -235.344 304.321 -274.367 372.111 -313.389C439.902 -352.412 507.692 -391.434 575.482 -430.457C643.272 -469.48 711.062 -508.502 778.853 -547.525C846.643 -586.547 914.433 -625.57 982.223 -664.593C1050.01 -703.615 1117.8 -742.638 1185.59 -781.661C1253.38 -820.683 1321.17 -859.706 1388.96 -898.728C1456.75 -937.751 1524.54 -976.774 1592.33 -1015.8C1660.12 -1054.82 1727.91 -1093.84 1795.71 -1132.86C1863.5 -1171.89 1931.29 -1210.91 1999.08 -1249.93C2066.87 -1288.95 2134.66 -1327.98 2168.55 -1347.49L2202.45 -1367L2351.03 -1108.89Z" fill="#F4E8DE"/>
</g>
<defs>
<filter id="filter0_d_105_15" x="-248" y="-1377" width="2708.08" height="1855" filterUnits="userSpaceOnUse" color-interpolation-filters="sRGB">
<feFlood flood-opacity="0" result="BackgroundImageFix"/>
<feColorMatrix in="SourceAlpha" type="matrix" values="0 0 0 0 0 0 0 0 0 0 0 0 0 0 0 0 0 0 127 0" result="hardAlpha"/>
<feOffset/>
<feGaussianBlur stdDeviation="5"/>
<feColorMatrix type="matrix" values="0 0 0 0 0.14902 0 0 0 0 0.129412 0 0 0 0 0.117647 0 0 0 1 0"/>
<feBlend mode="normal" in2="BackgroundImageFix" result="effect1_dropShadow_105_15"/>
<feBlend mode="normal" in="SourceGraphic" in2="effect1_dropShadow_105_15" result="shape"/>
</filter>
<clipPath id="clip0_105_15">
<rect width="2815.9" height="496.368" fill="white" transform="translate(2450.08 -936.814) rotate(150.074)"/>
</clipPath>
</defs>
</svg>
