<svg width="80%" height="auto" viewBox="0 0 1920 427" fill="none" xmlns="http://www.w3.org/2000/svg">
<g clip-path="url(#clip0_105_25)">
<path d="M0 85.4001L80.0833 71.1223C160.167 57.3782 320.333 28.0219 480.5 42.7001C640.667 57.3782 800.833 113.422 961 113.822C1121.17 113.422 1281.33 57.3782 1441.5 56.9779C1601.67 57.3782 1761.83 113.422 1841.92 142.378L1922 170.8V427H1841.92C1761.83 427 1601.67 427 1441.5 427C1281.33 427 1121.17 427 961 427C800.833 427 640.667 427 480.5 427C320.333 427 160.167 427 80.0833 427H0L0 85.4001Z" fill="#F4E8DE"/>
</g>
<defs>
<clipPath id="clip0_105_25">
<rect width="1922" height="427" fill="white"/>
</clipPath>
</defs>
</svg>
